<svg version="1" xmlns="http://www.w3.org/2000/svg" width="1365.333" height="1365.333" viewBox="0 0 1024.000000 1024.000000"><path d="M680.9 111c-32 5.1-64.9 19.5-101.8 44.7-18.8 12.8-43.3 32.7-59.6 48.4l-6 5.7-10.5-9.5c-47.6-43.2-97.8-73.5-139.3-84.2-20.6-5.3-37.3-6.5-52.8-3.5-39.7 7.5-63.5 39.1-72.6 96.6-2.5 15.6-2.5 63.3 0 82.3 2.6 19.6 6.3 40.5 9.7 55.4 1.7 7.4 2.7 13.7 2.3 14.1-.4.4-3.5 1.4-6.8 2.3-33.8 9.3-79.4 28.8-106.5 45.7-31.2 19.4-55.8 43.7-66.8 66.1-6.5 13.3-8.7 22.2-8.7 36.4 0 14.4 2.2 23.3 9.1 37.1 21.8 43.6 84.7 86.4 164.7 111.8 11.9 3.9 14.7 5.1 14.7 6.6 0 1-1.1 6.5-2.5 12.2-2.7 11.4-6.6 33.2-9 50.8-2.2 15.7-3.1 59.4-1.6 74.1 5.4 51.7 23.8 86.3 53.6 101 13 6.4 21.5 8.2 39 8.2 16.8.1 25.9-1.3 43.9-6.8 40.9-12.4 88.1-41.8 131.5-81.8l9.4-8.7 2.8 2.2c1.5 1.3 7.6 6.8 13.6 12.2 40.4 37.1 86.5 65.6 124.7 77 17.2 5.2 23.5 6.1 41.1 6.1 18.8-.1 24.2-1.2 38.5-8.3 7.9-3.8 11-6.1 18.1-13.2 4.7-4.7 10.2-11.1 12.3-14.3 11.9-18.3 19.8-42.1 23.8-71.7 1.9-14.5 1.6-61-.6-78.9-1.8-14.8-6.6-43.3-9-53.1-3-12.1-3.5-10.6 4.6-13.1 33.6-9.9 75.7-28.6 102.9-45.7 41.1-25.7 66.4-54.3 75-84.7 3.2-11.1 3.2-26.8.1-38-2.9-10.2-9.7-24.1-16.4-33-7.2-9.8-24.5-26.7-36.1-35.4-31.2-23.3-76.5-45-123.2-59.1-6-1.8-11.1-3.4-11.3-3.5-.1-.1.9-4.9 2.2-10.6 4.1-17.1 8.8-47.2 10.6-66.8 1.4-15 1.4-52 0-64.6-3.7-33.3-13.8-61.8-28.4-80.1-10.8-13.4-24.3-22.3-40.5-26.5-8.7-2.3-29.2-3.3-38.2-1.9zM337 150c36.7 4.5 82.1 29 130 70 6.3 5.4 13.2 11.6 15.3 13.7l3.7 3.9-8.1 9c-18.3 20.2-44.7 52.9-62.6 77.6l-6.1 8.5-7.4.7c-26.7 2.6-61.8 7.8-92.1 13.7-11.5 2.2-21 3.9-21.2 3.7-.1-.2-2.1-8.9-4.4-19.4-12.1-56.5-12.6-109.6-1.5-143.3 8.7-26.4 21-37.1 44.4-39 .9 0 5.4.4 10 .9zm379.2 2.8c16.5 8.1 27.2 28.9 32.5 63.2 2.4 15.7 2.4 53.7 0 74-3.4 28-10.1 61.7-12.2 61.3-.6-.1-11.3-2.2-24-4.7-23.6-4.7-53.9-9.3-79.5-12.1-8-.9-15-1.7-15.5-1.9-.6-.2-5.4-6.4-10.8-13.7-18.3-25.3-39.4-51.5-57.5-71.7-4.6-5.1-8.2-9.7-8-10.2.6-1.7 20.2-19.1 34.3-30.4 37-29.8 73.1-49.5 103-56 4.6-1 11.2-1.5 19-1.3 11.4.2 12.4.4 18.7 3.5zM530.5 284.6c11.4 13.2 25.9 31.1 32.4 39.9l2.9 4H460.3l7.3-9.5c10-13 23.5-29.2 35.7-42.9l10.1-11.3 2.6 2.9c1.4 1.6 7.9 9.2 14.5 16.9zm40 83.4c10.5.6 20.4 1.3 22.2 1.5 2.9.5 4.4 2.5 17.1 22.3 23.1 36 39.3 64.1 58.7 101.5l9.6 18.5-10.2 19.8c-18.5 36.1-37.1 68.4-60.7 105.5L596 654.7l-6.3.6c-3.4.3-21.9 1.2-41 1.8-27.3 1-43.2 1-73.5 0-21.3-.7-39.9-1.5-41.5-1.8-3.1-.6-6.3-4.9-22.1-29.7-19.8-31.1-34.6-57-52.9-92.6l-10.6-20.4 12-23.6c17.7-35.2 36-66.8 59.2-102.3 7.3-11.2 11.6-16.9 13.1-17.2 9.6-2.2 105.5-3.2 138.1-1.5zM380 375.6c0 .3-4.3 7.4-9.5 15.9-11.7 19-29.2 49.6-36.5 63.8-3 5.9-5.8 10.7-6.1 10.7-2.1 0-29.7-76.4-28-77.4 1.8-1.1 55.5-10.8 71.6-12.9 5.1-.7 8.5-.7 8.5-.1zm300.8 4.5c24.5 4.1 44.9 8.3 45.9 9.3 1.1 1.1-23.2 67.5-27.6 75.4-1 1.8-.6 2.4-13.1-20.3-9.8-17.9-26.9-47.2-35.9-61.4l-5.3-8.4 6.4.7c3.4.4 16.8 2.5 29.6 4.7zM269 420.5c7.8 23 20.4 55.3 29.9 76.7 3.4 7.5 6.1 14.3 6.1 15.1 0 .8-1.4 4.6-3.1 8.4-11.6 25.4-25.3 60.3-34.9 89.1-3.2 9.6-6 17.6-6.3 17.8-.6.6-30.8-9.4-42.7-14.1-24.7-9.7-54.5-25.7-72-38.5-36-26.6-51.1-52-44.4-75.1 9.5-32.8 65.6-71.5 137.4-94.7 6.9-2.2 14.5-4.7 17-5.5 2.5-.8 4.8-1.2 5.2-.8.4.3 3.9 10.1 7.8 21.6zm516.5-15.3c85.9 28.6 143 72.8 140.2 108.6-1 13.8-7.6 25.2-23.6 41.3-25.3 25.2-65.9 47.7-117.4 65-9.8 3.3-18 5.9-18.1 5.7-.1-.2-2.9-8-6.1-17.3-7.3-21.4-19.3-51.6-29.1-73.3-4.2-9.2-8.3-18.3-9.1-20.3-1.5-3.6-1.4-3.7 6.2-21 10.6-23.8 23.1-55.8 30.1-77.2l5.9-17.7 3 .6c1.7.4 9.7 2.9 18 5.6zm-80.7 165.3c9.9 23.7 24.7 64.3 23.9 65.2-1.9 1.8-82 15.5-83.2 14.1-.1-.2 5.6-10 12.7-21.8 14.9-24.8 24.4-41.4 33.6-58.8 3.5-6.8 6.8-12 7.2-11.5.4.4 3 6.2 5.8 12.8zm-370.3-.3c9.5 17.7 26.3 46.9 36.9 64.1 5.4 8.7 9.7 15.9 9.5 16.1-.6.5-28.5-3.1-42.4-5.4-28.5-4.8-39.5-7.2-39.5-8.5 0-4.3 27.2-77.5 28.8-77.5.4 0 3.4 5.1 6.7 11.2zm407.8 114.5c17.6 78.4 11.6 151.3-14.8 178.8-11.2 11.7-26.6 14.7-50 9.9-27.5-5.6-65.8-26.2-100-53.8-14-11.2-35.5-30.2-35.5-31.4 0-.4 4.3-5.7 9.6-11.7 18.3-20.9 40.6-49.3 58.3-74.2 8.2-11.6 4.7-10.1 29.6-12.8 29.7-3.2 56.6-7.4 83-13 8.8-1.8 16.3-3.3 16.6-3.4.3-.1 1.8 5.2 3.2 11.6zM302 677.5c28.6 5.8 71.7 11.9 99.1 14.1l8.7.7 10.3 14c17.1 23.4 40.8 52.4 60.4 74.2l7 7.8-7.5 6.9c-38.1 35.8-83.3 64.1-118.8 74.7-13.8 4.1-23.6 5.5-34.9 4.9-13.9-.8-20-3.3-28.4-11.7-25.7-25.7-30.9-92.9-13.3-173.1 3.1-14.2 3.3-15 4.3-15 .5 0 6.3 1.1 13.1 2.5zm265 18.2c0 1.3-31.5 40.7-43.2 54.1-7.7 8.9-9.2 10.1-10.5 9-6.2-5.1-52.3-60.4-52.3-62.7 0-.3 23.9-.6 53-.6 29.2 0 53 .1 53 .2z"/><path d="M494.5 432.9c-17.9 4.9-28.8 11.3-40.8 24.1-5.9 6.2-8.6 10.2-12.5 18.2-6.9 14.1-8.6 21.4-8.5 36.8 0 10.6.4 13.9 2.7 21.5 10.1 33.4 38.2 56 72.6 58.2 36.1 2.3 69.5-20.2 81-54.5 5.9-17.7 6-34.8.1-51.9-8.1-23.5-27.4-42.7-50.8-50.4-8.7-2.9-11.3-3.3-23.3-3.6-10.9-.2-14.8.1-20.5 1.6z"/></svg>